<?xml version="1.0" encoding="UTF-8"?>
<svg id="Layer_2" data-name="Layer 2" xmlns="http://www.w3.org/2000/svg" viewBox="0 0 532.9 313">
  <g id="Layer_1-2" data-name="Layer 1">
    <g>
      <path d="M71.35,313c-8.2-2.61-16.68-4.55-24.51-7.98-10.62-4.66-20.88-10.21-31.02-15.86-6.78-3.78-11.43-9.88-15.81-17.05,1.92-.12,3.16-.26,4.41-.27,58.99-.29,117.97-.56,176.96-.85,4.83-.02,9.69,.19,14.49-.23,10.02-.88,18.62,2.8,26.82,7.82,8.08,4.94,16.04,10.06,24.39,15.32,1.88-2.15,3.59-4.1,5.45-6.23-64.08-62.83-127.88-125.38-191.93-188.18-3.55,6.3-3.03,10.52,.93,14.61,4.16,4.29,8.28,8.61,13.11,13.64-2.8,0-5.16,.32-7.4-.05-20-3.32-35.37-13.41-42.54-32.73-3.04-8.19-3.41-17.58-3.85-26.48-.74-14.76,1.67-29.16,7.97-43.45,1.94,1.58,3.74,2.88,5.36,4.39,56.18,52.33,112.34,104.68,168.51,157.02,16.94,15.78,33.89,31.54,50.85,47.3,6.37,5.92,19.12,5.96,25.45,.07,56.17-52.34,112.33-104.7,168.5-157.04,17.18-16.01,34.37-32.01,51.57-47.99,1.31-1.21,2.74-2.29,5.49-4.58,2.38,9.86,5.67,18.55,6.32,27.43,.87,11.87,.83,24.05-.93,35.79-2.04,13.66-9.74,24.96-21.95,31.83-6.98,3.92-15.08,5.91-22.79,8.43-2.03,.67-4.46,.1-7.31-.99,4.02-3.86,7.9-7.87,12.09-11.53,4.7-4.1,5.49-8.81,2.89-15.31-2.37,1.84-4.64,3.29-6.53,5.13-24.43,23.86-48.82,47.77-73.2,71.69-36.51,35.82-73,71.66-109.52,107.48-1.07,1.05-2.25,1.97-3.75,3.27,2.01,2.32,3.68,4.26,5.62,6.49,7.86-4.96,15.43-9.72,22.98-14.52,9.19-5.84,18.86-9.12,30.1-8.74,20.14,.69,40.32,.41,60.48,.49,32.83,.13,65.66,.24,98.48,.33,11.43,.03,22.87,0,34.3,0,.36,.62,.71,1.23,1.07,1.85-5.04,5.09-9.48,11.04-15.25,15.1-16.63,11.69-35.1,19.57-55.05,23.79-.43,.09-.8,.5-1.19,.76H71.35Z"/>
      <path d="M174.36,0c-1.81,7.4-4.03,14.73-5.35,22.22-6.82,38.61,.59,74.05,25.65,104.65,39.67,48.43,106.85,47.43,145.08-2.36,27.1-35.3,32.23-74.98,20.09-117.32-.67-2.34-.97-4.79-1.45-7.19,.33,0,.67,0,1,0,17.55,28.68,24.75,59.73,20.96,93.16-.61,5.41-2.41,10.69-3.86,15.98-.37,1.35-1.24,2.74-2.27,3.7-35.43,33.07-70.92,66.08-106.4,99.1-.36,.33-.78,.6-1.68,1.28-7.23-6.67-14.55-13.36-21.81-20.13-28.03-26.11-55.97-52.32-84.14-78.28-6.04-5.57-6.68-13.01-7.65-19.96-4.32-30.82,1.69-59.92,16.17-87.37C170,5.03,171.15,2.5,172.36,0c.67,0,1.33,0,2,0Z"/>
    </g>
  </g>
</svg>